<mxfile host="65bd71144e">
    <diagram id="xrOu_WW-VvMAnIy_BMxa" name="Page-1">
        <mxGraphModel dx="1208" dy="851" grid="1" gridSize="10" guides="1" tooltips="1" connect="1" arrows="1" fold="1" page="1" pageScale="1" pageWidth="850" pageHeight="1100" background="#ffffff" math="0" shadow="0">
            <root>
                <mxCell id="0"/>
                <mxCell id="1" parent="0"/>
                <mxCell id="2" value="" style="rounded=1;whiteSpace=wrap;html=1;glass=0;shadow=0;gradientColor=none;fillColor=none;strokeColor=#42323C;strokeWidth=3;" parent="1" vertex="1">
                    <mxGeometry x="280" y="188" width="120" height="60" as="geometry"/>
                </mxCell>
                <mxCell id="3" value="" style="rounded=1;whiteSpace=wrap;html=1;strokeColor=#42323C;fillColor=none;strokeWidth=3;" parent="1" vertex="1">
                    <mxGeometry x="107" y="440" width="120" height="60" as="geometry"/>
                </mxCell>
                <mxCell id="4" value="" style="rounded=1;whiteSpace=wrap;html=1;strokeColor=#42323C;fillColor=none;strokeWidth=3;" parent="1" vertex="1">
                    <mxGeometry x="454" y="440" width="120" height="60" as="geometry"/>
                </mxCell>
                <mxCell id="10" value="" style="group;rounded=0;glass=0;shadow=0;" parent="1" vertex="1" connectable="0">
                    <mxGeometry x="310" y="334" width="60" height="70" as="geometry"/>
                </mxCell>
                <mxCell id="8" value="" style="shape=cylinder3;whiteSpace=wrap;html=1;boundedLbl=1;backgroundOutline=1;size=15;" parent="10" vertex="1">
                    <mxGeometry width="60" height="70" as="geometry"/>
                </mxCell>
                <mxCell id="9" value="" style="shape=cylinder3;whiteSpace=wrap;html=1;boundedLbl=1;backgroundOutline=1;size=15;lid=0;" parent="10" vertex="1">
                    <mxGeometry y="28" width="60" height="30" as="geometry"/>
                </mxCell>
                <mxCell id="13" value="" style="endArrow=classic;html=1;strokeColor=#42323C;startArrow=classic;startFill=1;" parent="1" edge="1">
                    <mxGeometry width="50" height="50" relative="1" as="geometry">
                        <mxPoint x="300" y="370" as="sourcePoint"/>
                        <mxPoint x="170" y="430" as="targetPoint"/>
                    </mxGeometry>
                </mxCell>
                <mxCell id="16" value="" style="endArrow=classic;html=1;strokeColor=#42323C;" parent="1" edge="1">
                    <mxGeometry width="50" height="50" relative="1" as="geometry">
                        <mxPoint x="240" y="470" as="sourcePoint"/>
                        <mxPoint x="440" y="470" as="targetPoint"/>
                    </mxGeometry>
                </mxCell>
                <mxCell id="17" value="&lt;font color=&quot;#42323c&quot;&gt;Data adquisition&lt;/font&gt;" style="text;html=1;align=center;verticalAlign=middle;resizable=0;points=[];autosize=1;strokeColor=none;fillColor=none;" parent="1" vertex="1">
                    <mxGeometry x="285" y="203" width="110" height="30" as="geometry"/>
                </mxCell>
                <mxCell id="18" value="&lt;font color=&quot;#42323c&quot;&gt;Data visualization&lt;/font&gt;" style="text;html=1;align=center;verticalAlign=middle;resizable=0;points=[];autosize=1;strokeColor=none;fillColor=none;" parent="1" vertex="1">
                    <mxGeometry x="454" y="455" width="120" height="30" as="geometry"/>
                </mxCell>
                <mxCell id="19" value="&lt;font color=&quot;#42323c&quot;&gt;Data analysis&lt;/font&gt;" style="text;html=1;align=center;verticalAlign=middle;resizable=0;points=[];autosize=1;strokeColor=none;fillColor=none;" parent="1" vertex="1">
                    <mxGeometry x="117" y="455" width="100" height="30" as="geometry"/>
                </mxCell>
                <mxCell id="20" value="&lt;font color=&quot;#42323c&quot;&gt;Data storage&lt;/font&gt;" style="text;html=1;align=center;verticalAlign=middle;resizable=0;points=[];autosize=1;strokeColor=none;fillColor=none;" parent="1" vertex="1">
                    <mxGeometry x="295" y="410" width="90" height="30" as="geometry"/>
                </mxCell>
                <mxCell id="21" value="" style="endArrow=classic;html=1;strokeColor=#42323C;" parent="1" edge="1">
                    <mxGeometry width="50" height="50" relative="1" as="geometry">
                        <mxPoint x="340" y="260" as="sourcePoint"/>
                        <mxPoint x="340" y="330" as="targetPoint"/>
                    </mxGeometry>
                </mxCell>
                <mxCell id="22" value="" style="endArrow=classic;html=1;strokeColor=#42323C;" parent="1" edge="1">
                    <mxGeometry width="50" height="50" relative="1" as="geometry">
                        <mxPoint x="380" y="370" as="sourcePoint"/>
                        <mxPoint x="510" y="430" as="targetPoint"/>
                    </mxGeometry>
                </mxCell>
            </root>
        </mxGraphModel>
    </diagram>
</mxfile>